PathFileType	4	(X/Y/Z)	C:/Users/beibeiliu/ov580/test_trc/User1\sequence.10_training_dense_right.trc
DataRate	CameraRate	NumFrames	NumMarkers	Units	OrigDataRate	OrigDataStartFrame	OrigNumFrames
120	120	23	19	mm	120	1	41
Frame#	Time	ThumbCMC			ThumbMCP			ThumbIP			ThumbTip			IndexMCP			IndexPIP			IndexTip			MiddleMCP			MiddlePIP			MiddleTip			RingMCP			RingPIP			RingTip			PinkyMCP			PinkyPIP			PinkyTip			BackHand1			BackHand2			BackHand3	
		X0	Y0	Z0	X1	Y1	Z1	X2	Y2	Z2	X3	Y3	Z3	X4	Y4	Z4	X5	Y5	Z5	X6	Y6	Z6	X7	Y7	Z7	X8	Y8	Z8	X9	Y9	Z9	X10	Y10	Z10	X11	Y11	Z11	X12	Y12	Z12	X13	Y13	Z13	X14	Y14	Z14	X15	Y15	Z15	X16	Y16	Z16	X17	Y17	Z17	X18	Y18	Z18	
0	0	151.182	48.9466	98.2591	124.719	42.7835	77.4205	112.074	40.2721	52.0264	98.6245	37.2327	36.4112	170.275	58.7651	13.5412	172.779	58.3736	-15.6125	174.112	59.5171	-37.4202	201.894	59.9389	9.39317	201.896	61.462	-18.4036	210.971	61.6472	-48.0727	220.741	54.6282	19.633	227.062	61.2638	-6.93501	235.641	64.0979	-32.5123	237.579	39.3619	39.907	250.106	44.5137	22.7506	260.87	52.9565	4.79391	214.65	56.0851	70.4764	213.773	64.0977	104.685	181.187	67.3916	85.0016	
1	0.00833333	146.316	49.4445	93.5838	127.522	37.2392	76.7877	113.743	34.2757	48.5013	97.6545	27.9695	35.6163	166.244	66.4541	15.7357	166.212	70.3016	-12.6969	173.237	70.6976	-38.6823	193.766	65.2105	9.58623	195.893	61.9789	-24.6924	202.041	52.3712	-53.507	214.682	59.6173	15.0695	225.286	57.7186	-9.43947	224.343	48.0764	-39.5443	233.502	42.6264	36.8297	245.159	42.9289	13.3617	246.213	39.9852	-13.2217	211.419	60.5987	71.983	211.176	64.9279	106.304	177.734	71.826	84.6839	
2	0.0166667	144.27	50.7983	98.7354	129.201	36.4672	71.7626	115.903	32.0017	45.8073	106.641	25.0898	28.0832	164.326	77.1665	18.7397	161.875	82.4294	-5.61021	168.993	84.3373	-32.2754	190.577	69.0448	4.31116	188.362	58.5351	-25.063	188.46	33.7383	-49.7045	213.027	58.3227	13.3707	212.631	48.7444	-13.4426	208.566	25.1311	-33.9558	230.157	45.0893	31.5319	235.322	36.3268	9.42613	227.695	25.4498	-13.871	211.684	65.4156	71.9928	214.239	67.14	105.303	179.533	76.2812	89.1371	
3	0.025	144.332	55.3095	96.4032	129.279	38.7744	71.8922	121.997	35.4848	40.7228	113.535	26.5699	20.5956	161.429	89.0569	25.1414	160.256	97.2304	-4.65957	166.87	100.251	-29.0265	190.426	72.5743	7.29035	181.575	51.8279	-21.4199	172.73	19.1623	-27.2388	205.937	59.0262	10.3385	199.832	36.1527	-13.0419	186.449	9.20561	-13.8217	225.243	46.7781	29.6717	221.912	33.4427	8.05975	199.297	10.8135	-3.92434	210.188	72.3634	73.5965	213.815	66.2395	109.304	177.436	81.7571	89.2315	
4	0.0333333	144.209	61.2741	96.817	131.99	43.756	69.6938	126.243	40.0714	39.5219	124.838	31.053	15.2127	163.588	98.6916	25.3205	159.907	106.142	2.61957	165.361	108.304	-24.7879	181.693	76.4414	12.8549	167.673	46.3136	-9.16114	156.619	16.7092	4.71443	199.371	57.1226	17.3228	181.974	27.5889	1.55299	169.349	3.64367	19.5584	219.798	44.4203	31.0069	201.419	24.0395	12.9705	177.961	9.34361	27.4211	211.563	73.2017	77.798	218.204	67.3294	110.982	184.588	83.3646	95.9464	
5	0.0416667	143.387	67.4597	98.305	130.482	49.4396	71.8248	125.641	42.5851	45.7859	127.092	32.1719	20.3725	157.531	99.7215	26.3479	158.816	102.617	-1.36478	153.863	107.497	-27.6415	175.342	69.0057	14.5874	156.958	37.9149	5.14312	146.072	20.1989	36.0238	185.186	47.5289	19.6877	168.565	18.7501	20.3514	156.375	10.6897	48.7005	205.608	33.3607	30.5397	183.07	17.8461	29.3488	164.554	13.9331	60.6266	212.692	70.531	73.0142	214.146	68.1824	107.561	184.282	87.4586	92.3998	
6	0.05	139.452	74.8189	103.04	114.232	58.9086	80.8108	106.683	47.9894	51.5203	108.978	29.9456	30.1338	145.508	92.6367	23.2777	137.693	93.634	-2.094	139.579	89.7008	-27.4918	152.27	59.6908	17.8099	130.736	31.1728	23.8481	132.926	28.0091	62.7765	165.116	33.7596	26.8599	143.869	12.9246	42.304	141.936	16.0445	74.2904	182.043	25.0473	38.157	158.386	9.06254	52.3068	153.913	24.4119	83.0245	200.637	67.5035	71.3	206.533	67.6074	105.436	177.4	88.9098	89.6432	
7	0.0583333	140.229	94.797	110.861	107.672	88.3738	89.1364	93.9038	77.3111	63.7037	88.1666	56.2533	42.4406	138.163	102.984	24.1391	128.56	99.2699	-1.89126	123.077	98.0829	-26.609	129.673	64.524	24.251	103.009	49.5399	41.3157	120.105	51.4585	79.1239	134.265	38.8908	36.6997	112.531	29.5837	60.2847	119.193	40.0232	89.1246	150.142	26.0808	44.7117	126.135	23.766	63.1321	134.768	39.7262	94.1544	186.891	62.258	63.7177	200.788	61.2805	102.076	177.874	93.2281	89.238	
8	0.0666667	157.265	108.021	103.882	124.248	120.063	91.0924	105.862	114.745	69.4088	86.2375	100.458	51.7166	149.199	110.839	21.3324	139.7	114.171	-1.57994	131.231	111.254	-22.9365	124.471	83.7769	26.3911	94.2818	84.523	48.846	108.869	82.359	79.6966	120.44	62.9092	39.0023	95.3481	66.4471	62.4353	110.298	69.01	95.517	122.433	41.254	49.1865	105.283	54.1484	70.4129	121.542	60.0542	96.1055	176.36	51.4662	63.1634	190.744	47.4742	95.9023	185.805	84.9161	85.1906	
9	0.075	179.691	107.098	102.655	151.569	128.467	82.9713	133.37	131.389	61.2762	110.113	125.204	42.2984	171.673	101.371	15.5744	166.541	109.681	-4.35918	157.808	108.707	-32.6307	137.346	93.8292	19.7768	109.389	106.225	39.2464	118.718	102.794	73.4061	124.494	72.4861	34.0772	102.283	90.2936	53.0895	112.561	91.6618	86.1156	116.526	51.933	46.5358	104.174	74.3122	63.1139	124.414	80.2648	88.0373	171.7	47.3867	66.6231	181.523	36.6029	95.7006	194.46	68.3425	82.3516	
10	0.0833333	192.871	93.6087	94.8508	173.785	120.21	70.1697	158.561	126.049	46.0074	138.666	119.795	25.4216	201.483	82.5998	16.5838	201.296	87.643	-13.0832	195.731	82.7861	-36.2351	161.414	78.6792	11.8402	134.298	98.1996	19.2586	134.833	100.26	58.1321	140.529	65.779	23.4919	121.113	88.005	36.3356	124.856	93.4567	69.5189	129.673	47.2023	38.122	119.86	73.5445	47.3535	136.042	80.8911	77.7854	179.98	34.3796	68.4697	185.353	25.9719	101.782	202.497	55.3679	84.7097	
11	0.0916667	196.15	90.2446	98.3633	181.396	105.32	66.6612	174.166	110.557	33.7829	160.247	104.414	9.44344	229.218	74.0369	21.2987	235.089	72.761	-6.44545	235.885	72.3916	-34.5691	192.991	65.592	10.6257	159.943	84.045	8.00617	151.162	90.1023	44.9478	168.657	50.6869	15.8594	143.313	70.6659	21.8569	140.049	80.7375	55.4677	156.968	37.5985	27.6504	139.507	60.0408	35.7147	146.055	69.6692	65.2741	197.196	24.9447	66.2656	195.025	22.103	103.928	216.252	54.4152	86.944	
12	0.1	184.28	94.0072	98.8395	170.196	101.694	64.4617	166.74	103.616	36.3376	162.897	94.9657	8.86555	236.953	95.1073	30.0749	245.405	96.4866	4.72232	249.329	100.633	-18.9594	205.971	74.5374	9.723	170.205	74.4279	6.56799	157.34	72.2564	39.9641	190.441	50.3923	14.5275	156.493	56.31	17.7287	146.975	64.3281	47.914	183.149	28.6409	23.9664	159.791	45.3082	28.0173	157.869	56.8249	57.9242	219.524	35.744	72.4957	209.461	29.3733	106.084	219.648	66.7529	97.6342	
13	0.108333	164.436	84.7998	97.0754	146.428	88.0286	63.0074	148.413	88.4568	34.7449	149.227	79.4422	9.03329	207.136	115.683	34.959	214.58	125.833	10.0438	220.475	134.911	-16.9456	200.931	83.983	15.1099	169.413	69.2659	4.65496	158.09	56.225	42.6831	196.447	55.5932	15.1487	165.65	50.0347	16.516	153.638	42.0525	44.5472	204.517	34.549	26.8713	172.056	34.121	29.3037	164.322	42.9508	55.6362	222.73	58.4118	78.572	218.127	47.3004	107.906	204.829	84.4503	101.563	
14	0.116667	147.501	71.0567	96.9171	128.927	62.3979	64.0785	133.501	61.433	34.5834	145.163	52.2902	6.05002	172.546	116.003	28.7595	175.613	122.552	3.64013	176.697	130.78	-18.0842	180.012	81.1292	15.1994	164.465	51.9181	7.2956	157.909	40.4189	46.2108	194.722	53.3232	19.4036	168.589	29.6063	24.0475	161.692	26.8596	56.5047	208.431	40.5266	31.7945	183.928	21.5387	32.8687	172.623	29.6428	66.5331	216.638	71.2411	78.3117	212.745	63.7703	112.819	185.582	88.4359	97.0636	
15	0.125	139.438	62.4646	97.679	126.192	42.6739	68.5708	126.252	34.9087	40.2875	139.22	22.1427	17.2915	154.512	92.6936	20.5781	152.896	93.4944	-5.71484	153.956	96.8123	-28.3381	170.919	56.8699	13.226	154.785	26.5864	17.9565	153.283	24.7802	54.6821	184.968	38.0178	23.649	172.454	9.69668	33.9452	165.317	13.3832	69.1364	205.376	28.1032	37.356	184.793	8.19884	46.9881	174.169	21.0054	76.8487	210.495	70.9607	76.9597	211	69.3106	109.344	175.777	84.1905	96.0874	
16	0.133333	139.281	60.7351	101.55	117.218	37.2612	76.8839	119.738	22.6764	49.5305	129.491	2.60159	31.6093	145.646	70.1952	16.1935	140.569	64.8573	-6.52879	144.048	58.971	-32.985	160.398	37.1412	18.9194	143.01	8.25553	30.5037	148.769	16.1435	67.9354	176.066	20.3707	33.0228	156.206	-3.23645	53.3799	154.915	11.1694	84.3482	195.603	10.1982	46.6624	171.111	-1.85066	65.1903	167.222	19.5484	88.916	203.689	60.9751	73.5298	208.739	66.0561	108.447	174.31	79.1011	92.0411	
17	0.141667	138.642	74.7031	101.339	112.312	52.4461	82.5392	100.968	35.3772	63.775	104.13	10.9231	48.5761	141.717	63.0187	16.2673	133.84	54.9139	-4.89559	129.498	45.2059	-26.4235	142.102	25.9072	26.146	120.584	9.81914	48.7467	130.828	28.1399	79.8802	150.783	10.9702	41.1625	132.867	-0.00718788	70.7091	138.902	19.9426	92.9834	166.433	-1.13432	55.2017	147.985	-1.17674	79.1356	153.94	20.9682	100.444	199.047	46.5194	69.54	209.181	56.4925	104.69	176.365	78.9028	86.9487	
18	0.15	153.745	94.8556	101.001	117.28	85.9348	82.2734	97.669	72.6869	66.86	87.5508	45.6252	53.1591	143.801	75.9577	16.0643	133.062	67.8418	-3.9392	123.796	55.9577	-29.095	124.845	43.924	27.6167	102.724	36.7228	50.3377	125.274	47.7682	83.3908	132.774	20.6012	45.1976	109.577	24.9728	71.4014	128.834	41.1927	96.6911	142.08	7.28068	58.2553	124.428	19.0286	83.4581	141.188	34.8813	100.27	188.264	39.9743	64.6015	203.292	45.3178	97.9939	188.365	74.2184	79.3787	
19	0.158333	176.403	100.6	90.4853	142.67	106.808	72.781	121.009	102.151	58.161	98.2196	84.7864	45.6301	161.721	81.4074	12.1192	149.694	79.1967	-11.489	139.975	74.9419	-33.1683	128.74	58.5919	22.8393	105.184	69.2949	45.284	127.637	72.9926	78.2498	121.584	43.2344	41.3077	105.853	59.2381	65.9372	129.437	63.7762	92.3669	128.681	26.3019	55.0072	113.424	43.1037	76.3323	140.954	56.2394	93.6731	182.459	34.157	60.9034	198.555	32.1098	93.3096	199.096	64.7873	76.852	
20	0.166667	195.667	91.3158	84.4461	171.91	110.078	64.6706	150.957	113.519	40.233	130.674	97.6525	27.1594	190.486	68.1826	5.73945	186.676	71.9389	-18.7728	179.482	67.4558	-42.786	157.32	62.9556	11.8899	128.318	81.3412	23.8821	143.201	86.4895	64.5467	138.207	51.8347	28.0669	121.651	74.3624	48.8283	133.057	73.7277	77.9356	130.564	33.3381	45.2303	119.613	56.1251	60.6332	142.819	62.3863	85.9508	185.202	21.6477	67.1226	195.991	21.3107	99.9078	210.156	56.0109	73.2067	
21	0.175	210.692	87.2753	85.1881	191.471	100.644	55.2722	180.251	105.528	27.8562	162.359	95.3978	10.4989	228.809	57.4313	8.71789	232.229	57.6082	-12.1574	230.717	53.3293	-44.2566	188.426	53.9937	5.50165	162.395	79.1742	10.4259	160.772	82.2237	49.5873	164.53	43.7843	17.5852	146.077	66.4071	28.1416	147.567	73.0231	61.504	152.989	31.0741	32.2754	143.111	55.2397	43.3405	156.962	62.907	71.5996	202.336	19.9873	70.7672	200.289	19.7626	104.843	222.05	44.9289	85.026	
22	0.183333	209.184	89.2659	88.9005	193.086	99.1227	57.9119	190.533	98.9935	24.6721	179.602	85.7376	2.6487	252.737	69.5522	20.693	259.993	69.4541	-4.29161	264.445	65.7373	-30.5548	216.082	51.7472	9.32143	183.66	67.6996	3.30894	173.439	73.0117	43.2058	194.825	36.1339	16.0462	166.47	57.2729	18.5186	158.803	62.0512	52.0859	183.48	25.6998	26.1888	161.625	42.6743	32.4865	170.441	57.807	62.7582	223.426	23.033	70.0989	212.567	24.1907	109.049	231.903	53.5157	88.7647	
